<mxfile host="app.diagrams.net" modified="2022-06-29T11:09:45.095Z" agent="5.0 (Macintosh)" etag="1ZY5sxEpz71ZnbkgK5nh" version="20.0.1" type="github">
  <diagram id="zRpgoigiP1IDF4QAEYAz" name="Page-1">
    <mxGraphModel dx="1127" dy="683" grid="1" gridSize="10" guides="1" tooltips="1" connect="1" arrows="1" fold="1" page="1" pageScale="1" pageWidth="827" pageHeight="1169" background="none" math="0" shadow="1">
      <root>
        <mxCell id="0" />
        <mxCell id="1" parent="0" />
        <mxCell id="_yfy8RAhn94L6OliEnwq-40" value="" style="rounded=0;whiteSpace=wrap;html=1;fillColor=#d5e8d4;shadow=1;strokeColor=#82b366;" vertex="1" parent="1">
          <mxGeometry x="470" y="190" width="20" height="140" as="geometry" />
        </mxCell>
        <mxCell id="_yfy8RAhn94L6OliEnwq-41" value="" style="rounded=0;whiteSpace=wrap;html=1;fillColor=#ffe6cc;shadow=1;strokeColor=#d79b00;" vertex="1" parent="1">
          <mxGeometry x="470" y="340" width="20" height="140" as="geometry" />
        </mxCell>
        <mxCell id="_yfy8RAhn94L6OliEnwq-42" value="" style="rounded=0;whiteSpace=wrap;html=1;fillColor=#e1d5e7;shadow=1;strokeColor=#9673a6;" vertex="1" parent="1">
          <mxGeometry x="470" y="490" width="20" height="140" as="geometry" />
        </mxCell>
        <mxCell id="_yfy8RAhn94L6OliEnwq-43" value="" style="rounded=0;whiteSpace=wrap;html=1;fillColor=#dae8fc;shadow=1;strokeColor=#6c8ebf;" vertex="1" parent="1">
          <mxGeometry x="360" y="190" width="20" height="20" as="geometry" />
        </mxCell>
        <mxCell id="_yfy8RAhn94L6OliEnwq-44" value="" style="rounded=0;whiteSpace=wrap;html=1;fillColor=#dae8fc;shadow=1;strokeColor=#6c8ebf;" vertex="1" parent="1">
          <mxGeometry x="360" y="220" width="20" height="20" as="geometry" />
        </mxCell>
        <mxCell id="_yfy8RAhn94L6OliEnwq-45" value="" style="rounded=0;whiteSpace=wrap;html=1;fillColor=#dae8fc;shadow=1;strokeColor=#6c8ebf;" vertex="1" parent="1">
          <mxGeometry x="360" y="250" width="20" height="20" as="geometry" />
        </mxCell>
        <mxCell id="_yfy8RAhn94L6OliEnwq-46" value="" style="rounded=0;whiteSpace=wrap;html=1;fillColor=#dae8fc;shadow=1;strokeColor=#6c8ebf;" vertex="1" parent="1">
          <mxGeometry x="360" y="280" width="20" height="20" as="geometry" />
        </mxCell>
        <mxCell id="_yfy8RAhn94L6OliEnwq-47" value="" style="rounded=0;whiteSpace=wrap;html=1;fillColor=#dae8fc;shadow=1;strokeColor=#6c8ebf;" vertex="1" parent="1">
          <mxGeometry x="360" y="310" width="20" height="20" as="geometry" />
        </mxCell>
        <mxCell id="_yfy8RAhn94L6OliEnwq-48" value="" style="rounded=0;whiteSpace=wrap;html=1;fillColor=#f8cecc;shadow=1;strokeColor=#b85450;" vertex="1" parent="1">
          <mxGeometry x="360" y="340" width="20" height="20" as="geometry" />
        </mxCell>
        <mxCell id="_yfy8RAhn94L6OliEnwq-49" value="" style="rounded=0;whiteSpace=wrap;html=1;fillColor=#f8cecc;shadow=1;strokeColor=#b85450;" vertex="1" parent="1">
          <mxGeometry x="360" y="370" width="20" height="20" as="geometry" />
        </mxCell>
        <mxCell id="_yfy8RAhn94L6OliEnwq-50" value="" style="rounded=0;whiteSpace=wrap;html=1;fillColor=#f8cecc;shadow=1;strokeColor=#b85450;" vertex="1" parent="1">
          <mxGeometry x="360" y="400" width="20" height="20" as="geometry" />
        </mxCell>
        <mxCell id="_yfy8RAhn94L6OliEnwq-51" value="" style="rounded=0;whiteSpace=wrap;html=1;fillColor=#f8cecc;shadow=1;strokeColor=#b85450;" vertex="1" parent="1">
          <mxGeometry x="360" y="430" width="20" height="20" as="geometry" />
        </mxCell>
        <mxCell id="_yfy8RAhn94L6OliEnwq-52" value="" style="rounded=0;whiteSpace=wrap;html=1;fillColor=#f8cecc;shadow=1;strokeColor=#b85450;" vertex="1" parent="1">
          <mxGeometry x="360" y="460" width="20" height="20" as="geometry" />
        </mxCell>
        <mxCell id="_yfy8RAhn94L6OliEnwq-53" value="" style="rounded=0;whiteSpace=wrap;html=1;fillColor=#fff2cc;shadow=1;strokeColor=#d6b656;" vertex="1" parent="1">
          <mxGeometry x="360" y="490" width="20" height="20" as="geometry" />
        </mxCell>
        <mxCell id="_yfy8RAhn94L6OliEnwq-54" value="" style="rounded=0;whiteSpace=wrap;html=1;fillColor=#fff2cc;shadow=1;strokeColor=#d6b656;" vertex="1" parent="1">
          <mxGeometry x="360" y="520" width="20" height="20" as="geometry" />
        </mxCell>
        <mxCell id="_yfy8RAhn94L6OliEnwq-55" value="" style="rounded=0;whiteSpace=wrap;html=1;fillColor=#fff2cc;shadow=1;strokeColor=#d6b656;" vertex="1" parent="1">
          <mxGeometry x="360" y="550" width="20" height="20" as="geometry" />
        </mxCell>
        <mxCell id="_yfy8RAhn94L6OliEnwq-56" value="" style="rounded=0;whiteSpace=wrap;html=1;fillColor=#fff2cc;shadow=1;strokeColor=#d6b656;" vertex="1" parent="1">
          <mxGeometry x="360" y="580" width="20" height="20" as="geometry" />
        </mxCell>
        <mxCell id="_yfy8RAhn94L6OliEnwq-57" value="" style="rounded=0;whiteSpace=wrap;html=1;fillColor=#fff2cc;shadow=1;strokeColor=#d6b656;" vertex="1" parent="1">
          <mxGeometry x="360" y="610" width="20" height="20" as="geometry" />
        </mxCell>
        <mxCell id="_yfy8RAhn94L6OliEnwq-60" value="" style="strokeWidth=2;html=1;shape=mxgraph.flowchart.annotation_2;align=left;labelPosition=right;pointerEvents=1;rotation=90;direction=south;" vertex="1" parent="1">
          <mxGeometry x="360" y="240" width="136" height="50" as="geometry" />
        </mxCell>
        <mxCell id="_yfy8RAhn94L6OliEnwq-61" value="" style="strokeWidth=2;html=1;shape=mxgraph.flowchart.annotation_2;align=left;labelPosition=right;pointerEvents=1;rotation=90;direction=south;" vertex="1" parent="1">
          <mxGeometry x="360" y="387" width="136" height="50" as="geometry" />
        </mxCell>
        <mxCell id="_yfy8RAhn94L6OliEnwq-62" value="" style="strokeWidth=2;html=1;shape=mxgraph.flowchart.annotation_2;align=left;labelPosition=right;pointerEvents=1;rotation=90;direction=south;" vertex="1" parent="1">
          <mxGeometry x="360" y="542" width="136" height="50" as="geometry" />
        </mxCell>
        <mxCell id="_yfy8RAhn94L6OliEnwq-63" value="交通参与者类型数量记录 #1" style="text;html=1;align=center;verticalAlign=middle;resizable=0;points=[];autosize=1;strokeColor=none;fillColor=none;" vertex="1" parent="1">
          <mxGeometry x="190" y="190" width="160" height="20" as="geometry" />
        </mxCell>
        <mxCell id="_yfy8RAhn94L6OliEnwq-64" value="交通参与者类型数量记录 #2" style="text;html=1;align=center;verticalAlign=middle;resizable=0;points=[];autosize=1;strokeColor=none;fillColor=none;" vertex="1" parent="1">
          <mxGeometry x="190" y="220" width="160" height="20" as="geometry" />
        </mxCell>
        <mxCell id="_yfy8RAhn94L6OliEnwq-65" value="&lt;div&gt;...&lt;/div&gt;" style="text;html=1;align=center;verticalAlign=middle;resizable=0;points=[];autosize=1;strokeColor=none;fillColor=none;" vertex="1" parent="1">
          <mxGeometry x="255" y="250" width="30" height="20" as="geometry" />
        </mxCell>
        <mxCell id="_yfy8RAhn94L6OliEnwq-66" value="&lt;font style=&quot;font-size: 17px;&quot;&gt;道路 #1&lt;/font&gt;" style="text;html=1;align=center;verticalAlign=middle;resizable=0;points=[];autosize=1;strokeColor=none;fillColor=none;strokeWidth=17;" vertex="1" parent="1">
          <mxGeometry x="515" y="255" width="70" height="20" as="geometry" />
        </mxCell>
        <mxCell id="_yfy8RAhn94L6OliEnwq-67" value="&lt;font style=&quot;font-size: 17px;&quot;&gt;道路 #2&lt;/font&gt;" style="text;html=1;align=center;verticalAlign=middle;resizable=0;points=[];autosize=1;strokeColor=none;fillColor=none;strokeWidth=17;" vertex="1" parent="1">
          <mxGeometry x="515" y="402" width="70" height="20" as="geometry" />
        </mxCell>
        <mxCell id="_yfy8RAhn94L6OliEnwq-68" value="&lt;font style=&quot;font-size: 17px;&quot;&gt;道路 #...&lt;/font&gt;" style="text;html=1;align=center;verticalAlign=middle;resizable=0;points=[];autosize=1;strokeColor=none;fillColor=none;strokeWidth=17;" vertex="1" parent="1">
          <mxGeometry x="510" y="557" width="80" height="20" as="geometry" />
        </mxCell>
        <mxCell id="_yfy8RAhn94L6OliEnwq-69" value="&lt;div style=&quot;font-size: 17px;&quot;&gt;&lt;font style=&quot;font-size: 17px;&quot;&gt;同类型&lt;/font&gt;&lt;/div&gt;&lt;div style=&quot;font-size: 17px;&quot;&gt;&lt;font style=&quot;font-size: 17px;&quot;&gt;交通参与者&lt;/font&gt;&lt;/div&gt;&lt;div style=&quot;font-size: 17px;&quot;&gt;&lt;font style=&quot;font-size: 17px;&quot;&gt;数量求和&lt;/font&gt;&lt;/div&gt;" style="text;html=1;align=center;verticalAlign=middle;resizable=0;points=[];autosize=1;strokeColor=none;fillColor=none;strokeWidth=5;" vertex="1" parent="1">
          <mxGeometry x="378" y="115" width="100" height="50" as="geometry" />
        </mxCell>
      </root>
    </mxGraphModel>
  </diagram>
</mxfile>
